<svg xmlns="http://www.w3.org/2000/svg" xmlns:xlink="http://www.w3.org/1999/xlink" width="20" height="20" viewBox="0 0 20 20"><defs><path id="bjw7a" d="M240 684c0-5.523 4.477-10 10-10s10 4.477 10 10-4.477 10-10 10-10-4.477-10-10z"/><path id="bjw7b" d="M248.855 684.186h.843c.813 0 1.41-.142 1.79-.425.38-.283.57-.725.57-1.326 0-.557-.17-.973-.51-1.247-.34-.274-.871-.411-1.592-.411h-1.1zm4.835-1.804c0 1.012-.331 1.788-.994 2.328-.664.54-1.608.809-2.833.809h-1.008v3.628h-1.585v-9.697h2.792c1.212 0 2.12.248 2.723.743.604.495.905 1.225.905 2.189z"/></defs><g><g transform="translate(-240 -674)"><g><use fill="#b41726" xlink:href="#bjw7a"/></g><g><use fill="#fff" xlink:href="#bjw7b"/></g></g></g></svg>