<svg xmlns="http://www.w3.org/2000/svg" xmlns:xlink="http://www.w3.org/1999/xlink" width="20" height="20" viewBox="0 0 20 20"><defs><path id="evzoa" d="M290.296 14.012v.682a6.492 6.492 0 0 1 6.485 6.482 6.492 6.492 0 0 1-6.485 6.483 6.492 6.492 0 0 1-6.482-6.483 6.491 6.491 0 0 1 6.482-6.482V13.33a7.848 7.848 0 0 0-7.846 7.846 7.849 7.849 0 0 0 7.846 7.848 7.849 7.849 0 0 0 7.848-7.848 7.849 7.849 0 0 0-7.848-7.846z"/><path id="evzob" d="M294.41 26.844l6.124 6.124.964-.965-6.124-6.123"/></defs><g><g transform="translate(-282 -13)"><g><use fill="#fff" xlink:href="#evzoa"/></g><g><use fill="#fff" xlink:href="#evzob"/></g></g></g></svg>